:FULLY-SPECIFIED
:FORCE-ALL-JOINTS-BE-3DOF
:DEGREES
1020
root 0.253945 13.5555 -35.3936 12.2402 -28.2873 -17.6793
lfemur -69.9323 36.0218 -4.01017
ltibia 82.3267 -0 0
lfoot -12.8198 -8.43924 0.000754476
ltoes -5.97096 0 0
rfemur 10.207 -8.70925 8.61594
rtibia 36.4607 -0 0
rfoot -22.5987 -26.1447 -1.69568e-06
rtoes -31.5966 0 0
lowerback 10.2759 -0.851228 5.42199
upperback -1.76463 0.0796913 8.18428
thorax -7.70596 -0.0368041 5.70472
lowerneck -4.96997 8.32492 3.46074
upperneck 7.88676 10.9589 -1.05107
head 3.71333 5.48573 -0.397723
lclavicle -9.98396e-14 2.50469e-14 0
lhumerus 83.2767 -10.2255 27.4421
lradius 95.3488 -0 0
lwrist 10.4867 0 0
lhand -36.5033 30.82 0.00102328
lfingers 7.12502 -0 0
lthumb -9.59549 60.5815 0.00099046
rclavicle -9.98396e-14 2.50469e-14 0
rhumerus -77.4563 22.9868 -95.015
rradius 112.022 -0 0
rwrist -63.1799 0 0
rhand -10.2444 -25.2379 0.000169341
rfingers 7.12502 -0 0
rthumb 15.7483 -54.6172 0.000165542
1021
root 0.253144 13.5529 -35.387 12.2531 -28.2676 -17.6738
lfemur -69.9888 36.0515 -4.0416
ltibia 82.4243 -0 0
lfoot -12.8973 -8.45809 0.000703728
ltoes -5.96662 0 0
rfemur 10.2595 -8.71012 8.59789
rtibia 36.416 -0 0
rfoot -22.5983 -26.1527 -1.58163e-06
rtoes -31.5837 0 0
lowerback 10.2476 -0.846786 5.38711
upperback -1.78256 0.0798145 8.18026
thorax -7.70897 -0.0351332 5.71986
lowerneck -4.92939 8.3335 3.44081
upperneck 7.88069 10.9743 -1.06056
head 3.70301 5.49263 -0.398755
lclavicle -9.98396e-14 2.50469e-14 0
lhumerus 83.2524 -9.35753 27.6948
lradius 95.0422 -0 0
lwrist 10.2944 0 0
lhand -36.5154 30.6558 0.000954447
lfingers 7.12502 -0 0
lthumb -9.60713 60.4167 0.000923838
rclavicle -9.98396e-14 2.50469e-14 0
rhumerus -77.4948 23.0471 -95.0443
rradius 111.999 -0 0
rwrist -63.2003 0 0
rhand -10.2364 -25.197 0.000157951
rfingers 7.12502 -0 0
rthumb 15.756 -54.5756 0.000154408
1022
root 0.252395 13.5505 -35.3808 12.2655 -28.2487 -17.6684
lfemur -70.043 36.08 -4.0718
ltibia 82.518 -0 0
lfoot -12.9717 -8.47619 0.000631071
ltoes -5.96246 0 0
rfemur 10.3098 -8.71094 8.58057
rtibia 36.3732 -0 0
rfoot -22.5979 -26.1604 -1.41833e-06
rtoes -31.5714 0 0
lowerback 10.2204 -0.842541 5.35365
upperback -1.79976 0.0799314 8.17639
thorax -7.71186 -0.0335294 5.73439
lowerneck -4.89046 8.34175 3.42169
upperneck 7.87487 10.9891 -1.06966
head 3.69311 5.49926 -0.399746
lclavicle -9.98396e-14 2.50469e-14 0
lhumerus 83.2328 -8.52467 27.9362
lradius 94.748 -0 0
lwrist 10.11 0 0
lhand -36.527 30.4982 0.000855902
lfingers 7.12502 -0 0
lthumb -9.6183 60.2587 0.000828453
rclavicle -9.98396e-14 2.50469e-14 0
rhumerus -77.5318 23.1049 -95.0726
rradius 111.977 -0 0
rwrist -63.2198 0 0
rhand -10.2287 -25.1576 0.000141643
rfingers 7.12502 -0 0
rthumb 15.7634 -54.5357 0.000138466
1023
root 0.251706 13.5483 -35.3752 12.2771 -28.2309 -17.6634
lfemur -70.0942 36.1068 -4.10028
ltibia 82.6062 -0 0
lfoot -13.0417 -8.49322 0.000541179
ltoes -5.95854 0 0
rfemur 10.3571 -8.7117 8.56427
rtibia 36.3328 -0 0
rfoot -22.5975 -26.1677 -1.2163e-06
rtoes -31.5598 0 0
lowerback 10.1949 -0.838557 5.32213
upperback -1.81597 0.0800405 8.17275
thorax -7.71458 -0.0320183 5.74808
lowerneck -4.8538 8.34953 3.40369
upperneck 7.86938 11.003 -1.07824
head 3.68379 5.5055 -0.400681
lclavicle -9.98396e-14 2.50469e-14 0
lhumerus 83.2176 -7.74022 28.1629
lradius 94.4709 -0 0
lwrist 9.93637 0 0
lhand -36.5379 30.3498 0.000733981
lfingers 7.12502 -0 0
lthumb -9.62882 60.1098 0.000710443
rclavicle -9.98396e-14 2.50469e-14 0
rhumerus -77.5668 23.1594 -95.0992
rradius 111.957 -0 0
rwrist -63.2382 0 0
rhand -10.2215 -25.1206 0.000121467
rfingers 7.12502 -0 0
rthumb 15.7704 -54.4981 0.000118742
1024
root 0.251083 13.5464 -35.3701 12.2878 -28.2144 -17.6588
lfemur -70.1413 36.1315 -4.12656
ltibia 82.6875 -0 0
lfoot -13.1062 -8.50892 0.000439929
ltoes -5.95493 0 0
rfemur 10.4008 -8.71239 8.54924
rtibia 36.2956 -0 0
rfoot -22.5972 -26.1744 -9.88741e-07
rtoes -31.5491 0 0
lowerback 10.1713 -0.834899 5.29309
upperback -1.83089 0.0801401 8.1694
thorax -7.71709 -0.0306255 5.76068
lowerneck -4.82002 8.35671 3.38711
upperneck 7.86432 11.0158 -1.08614
head 3.6752 5.51125 -0.401543
lclavicle -9.98396e-14 2.50469e-14 0
lhumerus 83.2064 -7.01743 28.3712
lradius 94.2156 -0 0
lwrist 9.77636 0 0
lhand -36.5479 30.2131 0.000596656
lfingers 7.12502 -0 0
lthumb -9.63851 59.9727 0.000577522
rclavicle -9.98396e-14 2.50469e-14 0
rhumerus -77.599 23.2095 -95.1238
rradius 111.938 -0 0
rwrist -63.2552 0 0
rhand -10.2148 -25.0865 9.87417e-05
rfingers 7.12502 -0 0
rthumb 15.7768 -54.4635 9.65267e-05
1025
root 0.250536 13.5447 -35.3657 12.2975 -28.1997 -17.6546
lfemur -70.1836 36.1536 -4.15014
ltibia 82.7603 -0 0
lfoot -13.164 -8.52299 0.000334152
ltoes -5.9517 0 0
rfemur 10.4399 -8.71299 8.53577
rtibia 36.2622 -0 0
rfoot -22.5969 -26.1804 -7.5101e-07
rtoes -31.5395 0 0
lowerback 10.1502 -0.831631 5.26706
upperback -1.84427 0.0802286 8.16639
thorax -7.71933 -0.0293765 5.77198
lowerneck -4.78974 8.36316 3.37225
upperneck 7.85979 11.0272 -1.09322
head 3.66749 5.5164 -0.402316
lclavicle -9.98396e-14 2.50469e-14 0
lhumerus 83.1986 -6.36952 28.5576
lradius 93.9868 -0 0
lwrist 9.63293 0 0
lhand -36.5569 30.0906 0.000453195
lfingers 7.12502 -0 0
lthumb -9.6472 59.8497 0.000438661
rclavicle -9.98396e-14 2.50469e-14 0
rhumerus -77.6279 23.2544 -95.1459
rradius 111.921 -0 0
rwrist -63.2704 0 0
rhand -10.2088 -25.0559 7.50004e-05
rfingers 7.12502 -0 0
rthumb 15.7825 -54.4325 7.33179e-05
1026
root 0.25007 13.5433 -35.3619 12.3058 -28.187 -17.651
lfemur -70.2202 36.1727 -4.17054
ltibia 82.8232 -0 0
lfoot -13.214 -8.53515 0.000231334
ltoes -5.9489 0 0
rfemur 10.4737 -8.71351 8.52413
rtibia 36.2334 -0 0
rfoot -22.5966 -26.1856 -5.19926e-07
rtoes -31.5312 0 0
lowerback 10.1319 -0.828815 5.24457
upperback -1.85584 0.0803045 8.16379
thorax -7.72127 -0.0282972 5.78175
lowerneck -4.76358 8.36873 3.35942
upperneck 7.85587 11.0371 -1.09934
head 3.66084 5.52086 -0.402985
lclavicle -9.98396e-14 2.50469e-14 0
lhumerus 83.1936 -5.80975 28.7183
lradius 93.7891 -0 0
lwrist 9.50902 0 0
lhand -36.5647 29.9847 0.000313746
lfingers 7.12502 -0 0
lthumb -9.65471 59.7435 0.000303684
rclavicle -9.98396e-14 2.50469e-14 0
rhumerus -77.6528 23.2932 -95.1649
rradius 111.907 -0 0
rwrist -63.2835 0 0
rhand -10.2037 -25.0295 5.1923e-05
rfingers 7.12502 -0 0
rthumb 15.7875 -54.4057 5.07582e-05
1027
root 0.249695 13.5421 -35.3589 12.3126 -28.1766 -17.6481
lfemur -70.2501 36.1883 -4.18725
ltibia 82.8747 -0 0
lfoot -13.2549 -8.54511 0.000139244
ltoes -5.94661 0 0
rfemur 10.5014 -8.71393 8.51461
rtibia 36.2098 -0 0
rfoot -22.5964 -26.1898 -3.12952e-07
rtoes -31.5244 0 0
lowerback 10.117 -0.826514 5.22615
upperback -1.8653 0.0803663 8.16167
thorax -7.72286 -0.027413 5.78974
lowerneck -4.74217 8.3733 3.34891
upperneck 7.85266 11.0453 -1.10436
head 3.65539 5.5245 -0.403533
lclavicle -9.98396e-14 2.50469e-14 0
lhumerus 83.1906 -5.35134 28.8498
lradius 93.6272 -0 0
lwrist 9.40755 0 0
lhand -36.5711 29.898 0.000188848
lfingers 7.12502 -0 0
lthumb -9.66085 59.6565 0.000182791
rclavicle -9.98396e-14 2.50469e-14 0
rhumerus -77.6733 23.325 -95.1806
rradius 111.895 -0 0
rwrist -63.2943 0 0
rhand -10.1994 -25.0079 3.12532e-05
rfingers 7.12502 -0 0
rthumb 15.7916 -54.3837 3.05521e-05
